HIERARCHY
ROOT Hips
{
    OFFSET 0.000000 0.000000 0.000000
    CHANNELS 6 Xposition Yposition Zposition Zrotation Xrotation Yrotation
    JOINT Spine
    {
        OFFSET -0.000000 7.305680 0.000000
        CHANNELS 3 Zrotation Xrotation Yrotation
        JOINT Spine1
        {
            OFFSET -0.000000 20.356600 0.000000
            CHANNELS 3 Zrotation Xrotation Yrotation
            JOINT Neck
            {
                OFFSET -0.000000 22.138500 0.000000
                CHANNELS 3 Zrotation Xrotation Yrotation
                JOINT Head
                {
                    OFFSET -0.000000 13.809501 1.781870
                    CHANNELS 3 Zrotation Xrotation Yrotation
                    End Site
                    {
                        OFFSET -0.000000 17.818779 0.000000
                    }
                }
            }
            JOINT LeftShoulder
            {
                OFFSET 3.599130 17.990000 0.023591
                CHANNELS 3 Zrotation Xrotation Yrotation
                JOINT LeftArm
                {
                    OFFSET 12.560999 0.000000 0.000000
                    CHANNELS 3 Zrotation Xrotation Yrotation
                    JOINT LeftForeArm
                    {
                        OFFSET 22.903299 0.000000 0.000000
                        CHANNELS 3 Zrotation Xrotation Yrotation
                        JOINT LeftHand
                        {
                            OFFSET 21.865299 0.000000 0.000000
                            CHANNELS 3 Zrotation Xrotation Yrotation
                            JOINT LeftHandThumb1
                            {
                                OFFSET 1.853710 -2.106480 2.949080
                                CHANNELS 3 Zrotation Xrotation Yrotation
                                JOINT LeftHandThumb2
                                {
                                    OFFSET 2.049150 0.000000 1.336400
                                    CHANNELS 3 Zrotation Xrotation Yrotation
                                    JOINT LeftHandThumb3
                                    {
                                        OFFSET 2.672810 0.000000 0.000000
                                        CHANNELS 3 Zrotation Xrotation Yrotation
                                        End Site
                                        {
                                            OFFSET 2.381310 0.000000 0.000000
                                        }
                                    }
                                }
                            }
                            JOINT LeftHandIndex1
                            {
                                OFFSET 7.583340 0.000000 2.949080
                                CHANNELS 3 Zrotation Xrotation Yrotation
                                JOINT LeftHandIndex2
                                {
                                    OFFSET 4.454680 0.000000 0.000000
                                    CHANNELS 3 Zrotation Xrotation Yrotation
                                    JOINT LeftHandIndex3
                                    {
                                        OFFSET 2.227340 0.000000 0.000000
                                        CHANNELS 3 Zrotation Xrotation Yrotation
                                        End Site
                                        {
                                            OFFSET 1.984424 0.000000 0.000000
                                        }
                                    }
                                }
                            }
                            JOINT LeftHandMiddle1
                            {
                                OFFSET 7.583340 0.000000 0.977409
                                CHANNELS 3 Zrotation Xrotation Yrotation
                                JOINT LeftHandMiddle2
                                {
                                    OFFSET 4.900150 0.000000 0.000000
                                    CHANNELS 3 Zrotation Xrotation Yrotation
                                    JOINT LeftHandMiddle3
                                    {
                                        OFFSET 2.672810 0.000000 0.000000
                                        CHANNELS 3 Zrotation Xrotation Yrotation
                                        End Site
                                        {
                                            OFFSET 2.381310 0.000000 0.000000
                                        }
                                    }
                                }
                            }
                            JOINT LeftHandRing1
                            {
                                OFFSET 7.162050 0.000000 -0.977409
                                CHANNELS 3 Zrotation Xrotation Yrotation
                                JOINT LeftHandRing2
                                {
                                    OFFSET 4.454680 0.000000 0.000000
                                    CHANNELS 3 Zrotation Xrotation Yrotation
                                    JOINT LeftHandRing3
                                    {
                                        OFFSET 2.227340 0.000000 0.000000
                                        CHANNELS 3 Zrotation Xrotation Yrotation
                                        End Site
                                        {
                                            OFFSET 1.984424 0.000000 0.000000
                                        }
                                    }
                                }
                            }
                            JOINT LeftHandPinky1
                            {
                                OFFSET 6.740750 0.000000 -2.949080
                                CHANNELS 3 Zrotation Xrotation Yrotation
                                JOINT LeftHandPinky2
                                {
                                    OFFSET 3.563750 0.000000 0.000000
                                    CHANNELS 3 Zrotation Xrotation Yrotation
                                    JOINT LeftHandPinky3
                                    {
                                        OFFSET 1.781870 0.000000 0.000000
                                        CHANNELS 3 Zrotation Xrotation Yrotation
                                        End Site
                                        {
                                            OFFSET 1.587538 0.000000 0.000000
                                        }
                                    }
                                }
                            }
                        }
                    }
                }
            }
            JOINT RightShoulder
            {
                OFFSET -3.506990 17.990000 0.023591
                CHANNELS 3 Zrotation Xrotation Yrotation
                JOINT RightArm
                {
                    OFFSET -12.560999 0.000000 0.000000
                    CHANNELS 3 Zrotation Xrotation Yrotation
                    JOINT RightForeArm
                    {
                        OFFSET -22.903299 0.000000 0.000000
                        CHANNELS 3 Zrotation Xrotation Yrotation
                        JOINT RightHand
                        {
                            OFFSET -21.865299 0.000000 0.000000
                            CHANNELS 3 Zrotation Xrotation Yrotation
                            JOINT RightHandThumb1
                            {
                                OFFSET -1.853710 -2.106480 2.949080
                                CHANNELS 3 Zrotation Xrotation Yrotation
                                JOINT RightHandThumb2
                                {
                                    OFFSET -2.049150 0.000000 1.336400
                                    CHANNELS 3 Zrotation Xrotation Yrotation
                                    JOINT RightHandThumb3
                                    {
                                        OFFSET -2.672810 0.000000 0.000000
                                        CHANNELS 3 Zrotation Xrotation Yrotation
                                        End Site
                                        {
                                            OFFSET -2.381310 0.000000 0.000000
                                        }
                                    }
                                }
                            }
                            JOINT RightHandIndex1
                            {
                                OFFSET -7.583340 0.000000 2.949080
                                CHANNELS 3 Zrotation Xrotation Yrotation
                                JOINT RightHandIndex2
                                {
                                    OFFSET -4.454680 0.000000 0.000000
                                    CHANNELS 3 Zrotation Xrotation Yrotation
                                    JOINT RightHandIndex3
                                    {
                                        OFFSET -2.227340 0.000000 0.000000
                                        CHANNELS 3 Zrotation Xrotation Yrotation
                                        End Site
                                        {
                                            OFFSET -1.984424 0.000000 0.000000
                                        }
                                    }
                                }
                            }
                            JOINT RightHandMiddle1
                            {
                                OFFSET -7.583340 0.000000 0.977409
                                CHANNELS 3 Zrotation Xrotation Yrotation
                                JOINT RightHandMiddle2
                                {
                                    OFFSET -4.900150 0.000000 0.000000
                                    CHANNELS 3 Zrotation Xrotation Yrotation
                                    JOINT RightHandMiddle3
                                    {
                                        OFFSET -2.672810 0.000000 0.000000
                                        CHANNELS 3 Zrotation Xrotation Yrotation
                                        End Site
                                        {
                                            OFFSET -2.381310 0.000000 0.000000
                                        }
                                    }
                                }
                            }
                            JOINT RightHandRing1
                            {
                                OFFSET -7.162050 0.000000 -0.977409
                                CHANNELS 3 Zrotation Xrotation Yrotation
                                JOINT RightHandRing2
                                {
                                    OFFSET -4.454680 0.000000 0.000000
                                    CHANNELS 3 Zrotation Xrotation Yrotation
                                    JOINT RightHandRing3
                                    {
                                        OFFSET -2.227340 0.000000 0.000000
                                        CHANNELS 3 Zrotation Xrotation Yrotation
                                        End Site
                                        {
                                            OFFSET -1.984424 0.000000 0.000000
                                        }
                                    }
                                }
                            }
                            JOINT RightHandPinky1
                            {
                                OFFSET -6.740750 0.000000 -2.949080
                                CHANNELS 3 Zrotation Xrotation Yrotation
                                JOINT RightHandPinky2
                                {
                                    OFFSET -3.563750 0.000000 0.000000
                                    CHANNELS 3 Zrotation Xrotation Yrotation
                                    JOINT RightHandPinky3
                                    {
                                        OFFSET -1.781870 0.000000 0.000000
                                        CHANNELS 3 Zrotation Xrotation Yrotation
                                        End Site
                                        {
                                            OFFSET -1.587538 0.000000 0.000000
                                        }
                                    }
                                }
                            }
                        }
                    }
                }
            }
        }
    }
    JOINT LeftUpLeg
    {
        OFFSET 8.909360 0.000000 0.000000
        CHANNELS 3 Zrotation Xrotation Yrotation
        JOINT LeftLeg
        {
            OFFSET -0.000000 -38.765602 0.000000
            CHANNELS 3 Zrotation Xrotation Yrotation
            JOINT LeftFoot
            {
                OFFSET -0.000000 -35.245003 0.000000
                CHANNELS 3 Zrotation Xrotation Yrotation
                JOINT LeftToeBase
                {
                    OFFSET -0.000000 -5.791090 13.364000
                    CHANNELS 3 Zrotation Xrotation Yrotation
                    End Site
                    {
                        OFFSET -0.000000 0.000000 3.563756
                    }
                }
            }
        }
    }
    JOINT RightUpLeg
    {
        OFFSET -8.909360 0.000000 0.000000
        CHANNELS 3 Zrotation Xrotation Yrotation
        JOINT RightLeg
        {
            OFFSET -0.000000 -38.765602 0.000000
            CHANNELS 3 Zrotation Xrotation Yrotation
            JOINT RightFoot
            {
                OFFSET -0.000000 -35.245003 0.000000
                CHANNELS 3 Zrotation Xrotation Yrotation
                JOINT RightToeBase
                {
                    OFFSET -0.000000 -5.791090 13.364000
                    CHANNELS 3 Zrotation Xrotation Yrotation
                    End Site
                    {
                        OFFSET -0.000000 0.000000 3.563756
                    }
                }
            }
        }
    }
}
MOTION
Frames:    4
Frame Time:    0.033333
4.323529    81.311005    115.691017    0.222729    1.596129    -0.072721    -0.200065    -3.142185    -2.473186    -0.689499    7.978760    -0.774913    -2.172333    2.782958    8.445678    2.782412    -7.753769    8.216969    -0.057741    2.925054    -12.925953    -83.184196    29.718811    -3.589586    17.793276    -2.457657    -13.042767    -7.493854    -29.462290    3.204749    1.011577    -0.650382    0.476188    -0.000000    0.000000    0.571209    -0.000000    0.000000    1.142417    -16.356598    3.090526    -10.408996    -33.276344    0.000000    0.000000    -16.638172    0.000000    0.000000    -26.512882    -0.342760    -2.721712    -53.029594    0.000000    0.000000    -26.514797    0.000000    0.000000    -36.155239    -5.047087    4.266493    -72.782845    0.000000    0.000000    -36.391422    0.000000    0.000000    -45.540276    -11.016140    10.620504    -93.134689    0.000000    0.000000    -46.567337    0.000000    0.000000    -4.065914    -1.156621    1.276198    93.863586    49.489445    -8.318366    -15.799383    -12.088438    7.637823    7.827101    -38.747669    -1.261701    0.317851    -3.367930    5.439367    0.000000    0.000000    0.000000    0.000000    0.000000    0.000000    20.003525    0.000000    -0.000000    40.007050    0.000000    -0.000000    20.003525    0.000000    -0.000000    26.501143    -1.502814    -2.300008    53.083031    0.000000    -0.000000    26.541515    0.000000    -0.000000    32.941013    -3.255166    -4.417699    66.159012    0.000000    -0.000000    33.079506    0.000000    -0.000000    39.520039    -5.296057    -6.384362    79.631233    0.000000    -0.000000    39.815617    0.000000    -0.000000    -1.249443    2.040176    -2.444109    1.354859    -6.461044    20.003191    -1.349231    3.848783    -15.770101    0.530088    -3.257777    -1.819751    -1.003597    0.488009    4.022532    0.298027    -1.897928    -7.618991    1.037051    -1.460666    5.156005    -0.229296    -1.135516    0.247722    
4.306366    81.319389    115.596008    0.148611    2.006635    -0.060356    -0.161014    -2.864125    -2.488182    -0.703182    7.430673    -0.782819    -1.777808    1.812648    8.246854    2.912425    -9.289198    8.120915    0.235640    3.229070    -13.084440    -83.575050    29.903730    -3.000894    18.084988    -3.181553    -14.065579    -7.948780    -29.601091    2.490427    1.127896    -0.539511    0.745762    -0.000000    0.000000    0.785596    -0.000000    0.000000    1.571193    -15.922497    2.963555    -10.272038    -32.377850    0.000000    0.000000    -16.188927    0.000000    0.000000    -26.093664    -0.463406    -2.540098    -52.192928    0.000000    0.000000    -26.096464    0.000000    0.000000    -35.749416    -5.171008    4.493157    -72.007996    0.000000    0.000000    -36.003998    0.000000    0.000000    -45.145111    -11.152280    10.892838    -92.423546    0.000000    0.000000    -46.211773    0.000000    0.000000    -4.202871    -0.928361    1.497467    94.456566    49.570560    -8.971332    -15.593518    -13.166035    7.772686    7.749773    -39.293961    -1.040697    0.254419    -3.317282    5.315591    0.000000    0.000000    0.000000    0.000000    0.000000    0.000000    19.880526    0.000000    -0.000000    39.761051    0.000000    -0.000000    19.880526    0.000000    -0.000000    26.453089    -1.484734    -2.270035    52.985107    0.000000    -0.000000    26.492554    0.000000    -0.000000    32.969387    -3.218501    -4.357631    66.209183    0.000000    -0.000000    33.104588    0.000000    -0.000000    39.628769    -5.239500    -6.292758    79.833969    0.000000    -0.000000    39.916985    0.000000    -0.000000    -1.174951    1.608141    -2.463971    1.382668    -6.578932    20.066742    -1.318787    4.046793    -15.799185    0.536607    -3.315138    -1.846535    -0.890037    0.039691    4.003978    0.241212    -1.963370    -7.658589    1.047281    -1.354097    5.190762    -0.219818    -1.137989    0.232429    
4.302081    81.328880    115.510284    0.123814    2.459091    -0.087037    -0.128871    -2.674049    -2.446415    -0.762712    6.827407    -0.769396    -1.308877    0.805653    8.045677    2.981095    -10.445107    8.022217    0.488795    3.300409    -13.347576    -83.851295    30.405107    -2.619662    17.989655    -3.418821    -14.094634    -8.237665    -29.424389    2.251125    1.164652    -0.554740    0.772542    -0.000000    0.000000    0.803852    -0.000000    0.000000    1.607704    -15.886457    2.907418    -10.105255    -32.287132    0.000000    0.000000    -16.143566    0.000000    0.000000    -26.050375    -0.536341    -2.391118    -52.108788    0.000000    0.000000    -26.054399    0.000000    0.000000    -35.699211    -5.256577    4.622942    -71.930458    0.000000    0.000000    -35.965221    0.000000    0.000000    -45.089764    -11.246657    11.002354    -92.352768    0.000000    0.000000    -46.176384    0.000000    0.000000    -4.281423    -0.889625    1.678430    94.881645    49.655365    -9.472072    -14.997847    -14.408379    7.478020    7.848097    -39.810505    -0.977604    0.215223    -3.220892    5.140052    0.000000    0.000000    0.000000    0.000000    0.000000    0.000000    19.714056    0.000000    -0.000000    39.428104    0.000000    -0.000000    19.714056    0.000000    -0.000000    26.372009    -1.481959    -2.265311    52.822903    0.000000    -0.000000    26.411457    0.000000    -0.000000    32.973991    -3.215537    -4.345938    66.217705    0.000000    -0.000000    33.108856    0.000000    -0.000000    39.722057    -5.238441    -6.270854    80.018402    0.000000    -0.000000    40.009209    0.000000    -0.000000    -1.158665    1.176649    -2.540681    1.426314    -6.754484    20.270298    -1.273360    4.222059    -15.892215    0.537157    -3.356296    -1.854900    -0.846845    -0.395712    4.019105    0.198814    -2.139657    -7.753057    1.057153    -1.194782    5.285296    -0.215775    -1.145037    0.225298    
4.309506    81.329407    115.446136    0.134454    2.798008    -0.126886    -0.112203    -2.478937    -2.383837    -0.812104    6.259196    -0.749839    -0.876341    -0.175485    7.879303    3.046897    -11.048140    7.932657    0.642615    3.096583    -13.729692    -84.002220    30.814743    -2.545174    17.475670    -2.967698    -12.966782    -8.389351    -29.067091    2.420652    1.133302    -0.618748    0.660391    -0.000000    0.000000    0.718874    -0.000000    0.000000    1.437748    -16.081921    2.912318    -9.994940    -32.673283    0.000000    0.000000    -16.336641    0.000000    0.000000    -26.236511    -0.582879    -2.286548    -52.483547    0.000000    0.000000    -26.241770    0.000000    0.000000    -35.870953    -5.351335    4.714483    -72.293816    0.000000    0.000000    -36.146900    0.000000    0.000000    -45.244633    -11.386377    11.075353    -92.704376    0.000000    0.000000    -46.352188    0.000000    0.000000    -4.306349    -0.998239    1.826355    94.963463    49.529129    -9.584199    -14.239177    -15.281876    6.808876    7.958826    -40.246853    -1.146307    0.204876    -3.128969    4.992373    0.000000    0.000000    0.000000    0.000000    0.000000    0.000000    19.615667    0.000000    -0.000000    39.231335    0.000000    -0.000000    19.615667    0.000000    -0.000000    26.320854    -1.478939    -2.260986    52.720413    0.000000    -0.000000    26.360203    0.000000    -0.000000    32.970295    -3.210732    -4.336222    66.209480    0.000000    -0.000000    33.104740    0.000000    -0.000000    39.767586    -5.232779    -6.254109    80.107330    0.000000    -0.000000    40.053665    0.000000    -0.000000    -1.179959    0.862967    -2.658209    1.462673    -6.899228    20.475140    -1.220807    4.346188    -15.942699    0.534683    -3.388880    -1.853852    -0.862686    -0.679520    4.114480    0.180127    -2.366090    -7.901080    1.059971    -1.030897    5.367807    -0.208931    -1.147977    0.214136    
